<svg width="40" height="52" viewBox="0 0 40 52" fill="none" xmlns="http://www.w3.org/2000/svg">
<path d="M31.5562 24.6654C32.1479 25.4626 32.1479 26.5387 31.5562 27.3346C29.6924 29.8404 25.2208 35 20.0002 35C14.7796 35 10.308 29.8404 8.44417 27.3346C8.15628 26.9529 8 26.4833 8 26C8 25.5167 8.15628 25.0471 8.44417 24.6654C10.308 22.1596 14.7796 17 20.0002 17C25.2208 17 29.6924 22.1596 31.5562 24.6654V24.6654Z" stroke="#434447" stroke-width="2" stroke-linecap="round" stroke-linejoin="round"/>
<path d="M20.0009 29.8574C22.0693 29.8574 23.746 28.1305 23.746 26.0002C23.746 23.87 22.0693 22.1431 20.0009 22.1431C17.9326 22.1431 16.2559 23.87 16.2559 26.0002C16.2559 28.1305 17.9326 29.8574 20.0009 29.8574Z" stroke="#434447" stroke-width="2" stroke-linecap="round" stroke-linejoin="round"/>
</svg>
