<svg width="60" height="60" viewBox="0 0 60 60" fill="none" xmlns="http://www.w3.org/2000/svg">
<rect width="60" height="60" rx="30" fill="#C9C9CA"/>
<path d="M45.8833 36.5501C45.6167 36.1001 44.8667 35.4001 43 35.7334C41.9667 35.9168 40.9167 36.0001 39.8667 35.9501C35.9833 35.7834 32.4667 34.0001 30.0167 31.2501C27.85 28.8334 26.5167 25.6834 26.5 22.2834C26.5 20.3834 26.8667 18.5501 27.6167 16.8168C28.35 15.1334 27.8333 14.2501 27.4667 13.8834C27.0833 13.5001 26.1833 12.9668 24.4167 13.7001C17.6 16.5668 13.3833 23.4001 13.8833 30.7168C14.3833 37.6001 19.2167 43.4834 25.6167 45.7001C27.15 46.2334 28.7667 46.5501 30.4333 46.6168C30.7 46.6334 30.9667 46.6501 31.2333 46.6501C36.8167 46.6501 42.05 44.0168 45.35 39.5334C46.4667 37.9834 46.1667 37.0001 45.8833 36.5501Z" fill="#17181C"/>
</svg>
