<svg width="46" height="13" viewBox="0 0 46 13" fill="none" xmlns="http://www.w3.org/2000/svg">
<path d="M5.1 9.996C4.916 9.996 4.784 9.932 4.704 9.804C4.632 9.684 4.596 9.548 4.596 9.396C4.596 9.196 4.644 9.008 4.74 8.832C4.948 8.448 5.208 8.048 5.52 7.632C5.832 7.208 6.156 6.788 6.492 6.372C6.836 5.948 7.148 5.548 7.428 5.172C7.236 5.148 7.032 5.136 6.816 5.136C6.272 5.136 5.68 5.204 5.04 5.34C4.84 5.38 4.652 5.428 4.476 5.484C4.308 5.532 4.156 5.556 4.02 5.556C3.932 5.556 3.86 5.54 3.804 5.508C3.78 5.492 3.748 5.464 3.708 5.424C3.676 5.376 3.66 5.32 3.66 5.256C3.66 5.168 3.732 5.068 3.876 4.956C4.02 4.836 4.304 4.736 4.728 4.656C5.008 4.608 5.344 4.584 5.736 4.584C6.064 4.584 6.4 4.604 6.744 4.644C7.096 4.684 7.408 4.748 7.68 4.836C7.984 4.412 8.204 4.044 8.34 3.732C8.476 3.412 8.544 3.14 8.544 2.916C8.544 2.556 8.392 2.304 8.088 2.16C7.792 2.016 7.412 1.944 6.948 1.944C6.652 1.944 6.332 1.968 5.988 2.016C5.652 2.056 5.308 2.116 4.956 2.196C4.884 2.212 4.724 2.252 4.476 2.316C4.228 2.372 3.932 2.448 3.588 2.544C3.252 2.632 2.904 2.736 2.544 2.856C2.184 2.976 1.844 3.104 1.524 3.24C1.212 3.376 0.956 3.52 0.756 3.672C0.564 3.816 0.468 3.964 0.468 4.116C0.468 4.244 0.556 4.368 0.732 4.488C0.748 4.504 0.756 4.516 0.756 4.524C0.756 4.54 0.736 4.548 0.696 4.548C0.648 4.548 0.604 4.536 0.564 4.512C0.332 4.352 0.216 4.12 0.216 3.816C0.216 3.592 0.292 3.356 0.444 3.108C0.596 2.86 0.832 2.648 1.152 2.472C1.56 2.24 2.016 2.032 2.52 1.848C3.024 1.656 3.544 1.496 4.08 1.368C4.624 1.232 5.156 1.132 5.676 1.068C6.196 0.996 6.68 0.96 7.128 0.96C7.72 0.96 8.184 1.02 8.52 1.14C8.864 1.26 9.108 1.424 9.252 1.632C9.396 1.84 9.468 2.072 9.468 2.328C9.468 2.672 9.364 3.036 9.156 3.42C8.956 3.804 8.732 4.148 8.484 4.452C8.42 4.532 8.352 4.616 8.28 4.704C8.208 4.792 8.128 4.884 8.04 4.98C8.16 5.044 8.268 5.124 8.364 5.22C8.42 5.292 8.448 5.352 8.448 5.4C8.448 5.456 8.416 5.484 8.352 5.484C8.304 5.484 8.248 5.464 8.184 5.424C8.128 5.384 8.068 5.352 8.004 5.328C7.948 5.304 7.884 5.28 7.812 5.256C7.588 5.528 7.348 5.816 7.092 6.12C6.836 6.416 6.592 6.708 6.36 6.996C6.128 7.284 5.92 7.552 5.736 7.8C5.632 7.944 5.516 8.104 5.388 8.28C5.26 8.456 5.148 8.64 5.052 8.832C4.964 9.024 4.92 9.22 4.92 9.42C4.92 9.532 4.94 9.632 4.98 9.72C5.02 9.808 5.1 9.852 5.22 9.852C5.276 9.852 5.34 9.84 5.412 9.816L5.46 9.804C5.492 9.804 5.508 9.816 5.508 9.84C5.508 9.88 5.476 9.912 5.412 9.936C5.276 9.976 5.172 9.996 5.1 9.996ZM8.93963 9.108C8.62763 9.108 8.39163 9.032 8.23163 8.88C8.07963 8.72 8.00362 8.516 8.00362 8.268C8.00362 8.116 8.02363 7.968 8.06363 7.824C8.10363 7.68 8.14763 7.552 8.19563 7.44C8.13963 7.496 8.08363 7.548 8.02763 7.596C7.97962 7.636 7.93962 7.668 7.90762 7.692C7.87562 7.716 7.84762 7.728 7.82362 7.728C7.79162 7.728 7.77562 7.708 7.77562 7.668C7.77562 7.612 7.81562 7.548 7.89562 7.476C8.17563 7.244 8.39563 7.04 8.55563 6.864C8.71563 6.68 8.88363 6.512 9.05963 6.36C9.35563 6.104 9.67163 5.904 10.0076 5.76C10.3436 5.616 10.6796 5.544 11.0156 5.544C11.3676 5.544 11.6436 5.628 11.8436 5.796C12.0436 5.964 12.1436 6.212 12.1436 6.54C12.1436 6.724 12.0876 6.936 11.9756 7.176C11.8716 7.416 11.7036 7.664 11.4716 7.92C11.3756 8.024 11.2676 8.128 11.1476 8.232C11.0276 8.328 10.9236 8.4 10.8356 8.448C11.2276 8.408 11.5956 8.272 11.9396 8.04C12.2836 7.8 12.5916 7.564 12.8636 7.332C12.9036 7.308 12.9316 7.296 12.9476 7.296C12.9876 7.296 13.0076 7.316 13.0076 7.356C13.0076 7.388 12.9876 7.424 12.9476 7.464C12.6036 7.792 12.2316 8.068 11.8316 8.292C11.4396 8.516 11.0036 8.624 10.5236 8.616C10.2436 8.768 9.96763 8.888 9.69563 8.976C9.43163 9.064 9.17963 9.108 8.93963 9.108ZM9.47963 8.772C9.59163 8.772 9.71163 8.752 9.83963 8.712C9.96763 8.672 10.0956 8.62 10.2236 8.556C10.1756 8.556 10.1276 8.532 10.0796 8.484C10.0396 8.436 10.0196 8.372 10.0196 8.292C10.0196 8.132 10.0796 7.968 10.1996 7.8C10.3196 7.632 10.4676 7.488 10.6436 7.368C10.8196 7.248 10.9916 7.188 11.1596 7.188C11.2556 7.188 11.3436 7.216 11.4236 7.272C11.5116 7.32 11.5596 7.388 11.5676 7.476C11.7036 7.324 11.7956 7.16 11.8436 6.984C11.8996 6.808 11.9276 6.644 11.9276 6.492C11.9276 6.284 11.8596 6.128 11.7236 6.024C11.5956 5.912 11.4196 5.856 11.1956 5.856C10.9796 5.856 10.7396 5.932 10.4756 6.084C10.2196 6.236 9.97563 6.432 9.74363 6.672C9.51963 6.912 9.33163 7.172 9.17963 7.452C9.03563 7.732 8.96363 8 8.96363 8.256C8.96363 8.6 9.13563 8.772 9.47963 8.772ZM13.7326 9.108C13.4206 9.108 13.1846 9.032 13.0246 8.88C12.8726 8.72 12.7966 8.516 12.7966 8.268C12.7966 8.116 12.8166 7.968 12.8566 7.824C12.8966 7.68 12.9406 7.552 12.9886 7.44C12.9326 7.496 12.8766 7.548 12.8206 7.596C12.7726 7.636 12.7326 7.668 12.7006 7.692C12.6686 7.716 12.6406 7.728 12.6166 7.728C12.5846 7.728 12.5686 7.708 12.5686 7.668C12.5686 7.612 12.6086 7.548 12.6886 7.476C12.9686 7.244 13.1886 7.04 13.3486 6.864C13.5086 6.68 13.6766 6.512 13.8526 6.36C14.1486 6.104 14.4646 5.904 14.8006 5.76C15.1366 5.616 15.4726 5.544 15.8086 5.544C16.1606 5.544 16.4366 5.628 16.6366 5.796C16.8366 5.964 16.9366 6.212 16.9366 6.54C16.9366 6.724 16.8806 6.936 16.7686 7.176C16.6646 7.416 16.4966 7.664 16.2646 7.92C16.1686 8.024 16.0606 8.128 15.9406 8.232C15.8206 8.328 15.7166 8.4 15.6286 8.448C16.0206 8.408 16.3886 8.272 16.7326 8.04C17.0766 7.8 17.3846 7.564 17.6566 7.332C17.6966 7.308 17.7246 7.296 17.7406 7.296C17.7806 7.296 17.8006 7.316 17.8006 7.356C17.8006 7.388 17.7806 7.424 17.7406 7.464C17.3966 7.792 17.0246 8.068 16.6246 8.292C16.2326 8.516 15.7966 8.624 15.3166 8.616C15.0366 8.768 14.7606 8.888 14.4886 8.976C14.2246 9.064 13.9726 9.108 13.7326 9.108ZM14.2726 8.772C14.3846 8.772 14.5046 8.752 14.6326 8.712C14.7606 8.672 14.8886 8.62 15.0166 8.556C14.9686 8.556 14.9206 8.532 14.8726 8.484C14.8326 8.436 14.8126 8.372 14.8126 8.292C14.8126 8.132 14.8726 7.968 14.9926 7.8C15.1126 7.632 15.2606 7.488 15.4366 7.368C15.6126 7.248 15.7846 7.188 15.9526 7.188C16.0486 7.188 16.1366 7.216 16.2166 7.272C16.3046 7.32 16.3526 7.388 16.3606 7.476C16.4966 7.324 16.5886 7.16 16.6366 6.984C16.6926 6.808 16.7206 6.644 16.7206 6.492C16.7206 6.284 16.6526 6.128 16.5166 6.024C16.3886 5.912 16.2126 5.856 15.9886 5.856C15.7726 5.856 15.5326 5.932 15.2686 6.084C15.0126 6.236 14.7686 6.432 14.5366 6.672C14.3126 6.912 14.1246 7.172 13.9726 7.452C13.8286 7.732 13.7566 8 13.7566 8.256C13.7566 8.6 13.9286 8.772 14.2726 8.772ZM20.9856 10.056C20.8576 9.944 20.7616 9.8 20.6976 9.624C20.6416 9.456 20.6136 9.264 20.6136 9.048C20.6136 8.848 20.6336 8.636 20.6736 8.412C20.7216 8.188 20.7816 7.952 20.8536 7.704C20.7016 7.896 20.5296 8.092 20.3376 8.292C20.1536 8.492 19.9776 8.664 19.8096 8.808C19.4736 9.08 19.1096 9.216 18.7176 9.216C18.4216 9.216 18.1696 9.124 17.9616 8.94C17.7536 8.748 17.6496 8.452 17.6496 8.052C17.6496 7.948 17.6576 7.848 17.6736 7.752C17.6976 7.656 17.7256 7.56 17.7576 7.464C17.7096 7.504 17.6616 7.544 17.6136 7.584C17.5736 7.624 17.5336 7.66 17.4936 7.692C17.4616 7.716 17.4296 7.728 17.3976 7.728C17.3576 7.728 17.3376 7.708 17.3376 7.668C17.3376 7.62 17.3776 7.564 17.4576 7.5C17.5616 7.412 17.6776 7.292 17.8056 7.14C17.9416 6.988 18.0896 6.824 18.2496 6.648C18.5296 6.336 18.8696 6.084 19.2696 5.892C19.6776 5.7 20.0776 5.604 20.4696 5.604C20.8056 5.604 21.0496 5.664 21.2016 5.784C21.3616 5.904 21.4416 6.048 21.4416 6.216C21.6416 5.792 21.8496 5.388 22.0656 5.004C22.2896 4.612 22.4976 4.268 22.6896 3.972C22.8896 3.676 23.0536 3.456 23.1816 3.312C23.2696 3.208 23.3776 3.132 23.5056 3.084C23.6416 3.036 23.7776 3.012 23.9136 3.012C24.0496 3.012 24.1816 3.032 24.3096 3.072C24.4376 3.112 24.5496 3.176 24.6456 3.264C24.5656 3.312 24.4376 3.428 24.2616 3.612C24.0936 3.788 23.8976 4.008 23.6736 4.272C23.4576 4.536 23.2296 4.82 22.9896 5.124C22.7576 5.428 22.5376 5.732 22.3296 6.036C22.0816 6.396 21.8456 6.784 21.6216 7.2C21.4056 7.616 21.2296 8.02 21.0936 8.412C20.9576 8.796 20.8896 9.136 20.8896 9.432C20.8896 9.672 20.9416 9.856 21.0456 9.984C21.0696 10.016 21.0696 10.036 21.0456 10.044C21.0216 10.06 21.0016 10.064 20.9856 10.056ZM19.0896 8.808C19.2336 8.808 19.4256 8.736 19.6656 8.592C19.9056 8.44 20.2016 8.184 20.5536 7.824C20.6656 7.712 20.7536 7.616 20.8176 7.536C20.8896 7.448 20.9496 7.364 20.9976 7.284C21.0376 7.172 21.0776 7.064 21.1176 6.96C21.1576 6.856 21.2016 6.752 21.2496 6.648C21.2016 6.68 21.1656 6.696 21.1416 6.696C21.0776 6.696 21.0456 6.66 21.0456 6.588C21.0456 6.556 21.0576 6.516 21.0816 6.468C21.1616 6.332 21.2016 6.212 21.2016 6.108C21.2016 5.94 21.1056 5.856 20.9136 5.856C20.8096 5.856 20.6696 5.888 20.4936 5.952C20.2936 6.032 20.0856 6.156 19.8696 6.324C19.6616 6.484 19.4656 6.676 19.2816 6.9C19.1056 7.116 18.9616 7.34 18.8496 7.572C18.7456 7.804 18.6936 8.024 18.6936 8.232C18.6936 8.384 18.7216 8.52 18.7776 8.64C18.8416 8.752 18.9456 8.808 19.0896 8.808Z" fill="#5C1010"/>
<path d="M25.3206 9.396C25.0566 9.404 24.7646 9.38 24.4446 9.324C24.1246 9.276 23.8126 9.188 23.5086 9.06C23.2046 8.932 22.9406 8.764 22.7166 8.556C22.4926 8.348 22.3406 8.092 22.2606 7.788C22.5486 8.044 22.9406 8.232 23.4366 8.352C23.9326 8.464 24.4366 8.52 24.9486 8.52C25.6286 8.52 26.2206 8.444 26.7246 8.292C26.8686 8.252 27.0366 8.188 27.2286 8.1C27.4206 8.004 27.6086 7.896 27.7926 7.776C27.9766 7.648 28.1286 7.508 28.2486 7.356C28.3766 7.204 28.4406 7.048 28.4406 6.888C28.4406 6.776 28.4046 6.668 28.3326 6.564C28.2606 6.46 28.1446 6.356 27.9846 6.252C27.8886 6.196 27.7486 6.136 27.5646 6.072C27.3886 6 27.1966 5.92 26.9886 5.832C26.7806 5.736 26.5846 5.628 26.4006 5.508C26.2166 5.38 26.0686 5.232 25.9566 5.064C25.8526 4.888 25.8126 4.688 25.8366 4.464C25.8766 4.136 26.0246 3.812 26.2806 3.492C26.5446 3.164 26.8726 2.86 27.2646 2.58C27.6646 2.292 28.0926 2.04 28.5486 1.824C29.0126 1.608 29.4646 1.44 29.9046 1.32C30.3526 1.192 30.7486 1.128 31.0926 1.128C31.4446 1.128 31.7446 1.196 31.9926 1.332C32.2486 1.468 32.3566 1.7 32.3166 2.028C32.3006 2.172 32.2006 2.344 32.0166 2.544C31.8406 2.744 31.6286 2.964 31.3806 3.204C31.1326 3.444 30.8846 3.696 30.6366 3.96C30.3966 4.224 30.1966 4.492 30.0366 4.764C29.8846 5.036 29.8166 5.3 29.8326 5.556C29.7046 5.452 29.6086 5.336 29.5446 5.208C29.4886 5.08 29.4606 4.948 29.4606 4.812C29.4606 4.62 29.5006 4.424 29.5806 4.224C29.6606 4.024 29.7606 3.836 29.8806 3.66C30.0006 3.476 30.1126 3.32 30.2166 3.192C30.4006 2.968 30.6086 2.756 30.8406 2.556C31.0726 2.356 31.3086 2.172 31.5486 2.004C31.4766 1.9 31.3526 1.848 31.1766 1.848C30.9926 1.848 30.7846 1.888 30.5526 1.968C30.3286 2.048 30.1166 2.136 29.9166 2.232C29.7246 2.32 29.5886 2.388 29.5086 2.436C29.1646 2.62 28.8166 2.828 28.4646 3.06C28.1206 3.292 27.8006 3.528 27.5046 3.768C27.2166 4.008 26.9806 4.232 26.7966 4.44C26.6206 4.64 26.5246 4.808 26.5086 4.944C26.4926 5.112 26.5646 5.256 26.7246 5.376C26.8846 5.488 27.0926 5.592 27.3486 5.688C27.6046 5.784 27.8566 5.896 28.1046 6.024C28.4406 6.192 28.6846 6.384 28.8366 6.6C28.9886 6.816 29.0646 7.04 29.0646 7.272C29.0646 7.56 28.9566 7.844 28.7406 8.124C28.5246 8.396 28.2326 8.624 27.8646 8.808C27.5366 8.968 27.1926 9.092 26.8326 9.18C26.4806 9.268 26.1646 9.324 25.8846 9.348C25.6126 9.38 25.4246 9.396 25.3206 9.396ZM30.2295 9.204C29.9735 9.204 29.7775 9.128 29.6415 8.976C29.5055 8.824 29.4375 8.612 29.4375 8.34C29.4375 8.084 29.5055 7.784 29.6415 7.44L29.6655 7.38L29.4495 7.584C29.4175 7.616 29.3815 7.632 29.3415 7.632C29.3015 7.632 29.2815 7.616 29.2815 7.584C29.2815 7.544 29.3095 7.496 29.3655 7.44C29.5735 7.256 29.7855 7.064 30.0015 6.864C30.2255 6.656 30.4135 6.46 30.5655 6.276C30.5095 6.3 30.4495 6.312 30.3855 6.312C30.3215 6.312 30.2735 6.296 30.2415 6.264C30.1855 6.224 30.1575 6.152 30.1575 6.048C30.1575 5.96 30.1975 5.868 30.2775 5.772C30.3655 5.676 30.5415 5.592 30.8055 5.52C30.8615 5.504 30.9175 5.492 30.9735 5.484C31.0375 5.476 31.0975 5.468 31.1535 5.46C31.4095 5.1 31.6335 4.768 31.8255 4.464C32.0175 4.152 32.1695 3.944 32.2815 3.84C32.3295 3.784 32.4135 3.736 32.5335 3.696C32.6615 3.656 32.7935 3.624 32.9295 3.6C33.0735 3.576 33.1855 3.564 33.2655 3.564C33.5295 3.564 33.6615 3.588 33.6615 3.636C33.6615 3.668 33.6015 3.744 33.4815 3.864C33.2815 4.056 33.0455 4.296 32.7735 4.584C32.5095 4.864 32.2375 5.168 31.9575 5.496C32.1895 5.528 32.4015 5.588 32.5935 5.676C32.7935 5.764 32.9375 5.876 33.0255 6.012C33.0575 6.052 33.0735 6.1 33.0735 6.156C33.0735 6.22 33.0535 6.252 33.0135 6.252C32.9815 6.252 32.9455 6.232 32.9055 6.192C32.7375 6.024 32.4575 5.94 32.0655 5.94C31.9855 5.94 31.9015 5.944 31.8135 5.952C31.7335 5.96 31.6495 5.972 31.5615 5.988C31.2895 6.34 31.0415 6.692 30.8175 7.044C30.5935 7.396 30.4335 7.724 30.3375 8.028C30.2895 8.172 30.2655 8.304 30.2655 8.424C30.2655 8.544 30.2935 8.644 30.3495 8.724C30.4055 8.796 30.4895 8.832 30.6015 8.832C30.6735 8.832 30.7615 8.812 30.8655 8.772C31.0175 8.716 31.1935 8.624 31.3935 8.496C31.5935 8.36 31.7935 8.208 31.9935 8.04C32.2015 7.872 32.3935 7.708 32.5695 7.548C32.7535 7.388 32.9055 7.252 33.0255 7.14C33.1455 7.028 33.2135 6.964 33.2295 6.948C33.2535 6.924 33.2735 6.912 33.2895 6.912C33.3215 6.912 33.3375 6.936 33.3375 6.984C33.3375 7.04 33.3135 7.092 33.2655 7.14C33.1855 7.22 33.0615 7.34 32.8935 7.5C32.7335 7.66 32.5455 7.84 32.3295 8.04C32.1215 8.232 31.8975 8.416 31.6575 8.592C31.4175 8.768 31.1735 8.912 30.9255 9.024C30.6855 9.144 30.4535 9.204 30.2295 9.204ZM33.9413 9.12C33.5893 9.12 33.2933 9.036 33.0533 8.868C32.8213 8.692 32.7053 8.44 32.7053 8.112C32.7053 7.76 32.7893 7.432 32.9573 7.128C33.1253 6.824 33.3493 6.56 33.6293 6.336C33.9093 6.104 34.2133 5.924 34.5413 5.796C34.8773 5.668 35.2093 5.604 35.5373 5.604C35.8653 5.604 36.1093 5.664 36.2693 5.784C36.4293 5.896 36.5093 6.036 36.5093 6.204C36.5093 6.364 36.4333 6.536 36.2813 6.72C36.1373 6.896 35.9253 7.052 35.6453 7.188C35.4693 7.268 35.2653 7.34 35.0333 7.404C34.8093 7.46 34.6133 7.488 34.4453 7.488C34.3173 7.488 34.2533 7.468 34.2533 7.428C34.2533 7.396 34.3093 7.38 34.4213 7.38C34.5253 7.38 34.6853 7.352 34.9013 7.296C35.1253 7.232 35.3413 7.148 35.5493 7.044C35.7813 6.916 35.9453 6.788 36.0413 6.66C36.1373 6.532 36.1853 6.416 36.1853 6.312C36.1853 6.216 36.1453 6.136 36.0653 6.072C35.9933 6.008 35.8893 5.976 35.7533 5.976C35.6253 5.976 35.4813 6.012 35.3213 6.084C35.0893 6.188 34.8493 6.36 34.6013 6.6C34.3613 6.832 34.1613 7.088 34.0013 7.368C33.8413 7.648 33.7613 7.916 33.7613 8.172C33.7613 8.348 33.8093 8.496 33.9053 8.616C34.0093 8.736 34.1613 8.796 34.3613 8.796C34.5693 8.796 34.8093 8.732 35.0813 8.604C35.3533 8.468 35.6293 8.304 35.9093 8.112C36.1893 7.912 36.4493 7.712 36.6893 7.512C36.9293 7.312 37.1213 7.144 37.2653 7.008C37.3133 6.96 37.3493 6.936 37.3733 6.936C37.3973 6.936 37.4093 6.956 37.4093 6.996C37.4093 7.052 37.3853 7.1 37.3373 7.14C37.0333 7.42 36.7013 7.712 36.3413 8.016C35.9893 8.32 35.6093 8.58 35.2013 8.796C34.8013 9.004 34.3813 9.112 33.9413 9.12ZM35.4275 12.336C35.3715 12.256 35.3155 12.156 35.2595 12.036C35.1955 11.916 35.1635 11.752 35.1635 11.544C35.1635 11.376 35.2235 11.132 35.3435 10.812C35.4635 10.5 35.6235 10.144 35.8235 9.744C36.0155 9.344 36.2355 8.932 36.4835 8.508C36.7235 8.076 36.9675 7.668 37.2155 7.284C37.0635 7.436 36.9075 7.572 36.7475 7.692C36.7155 7.716 36.6915 7.728 36.6755 7.728C36.6515 7.728 36.6395 7.712 36.6395 7.68C36.6395 7.664 36.6515 7.636 36.6755 7.596C36.6915 7.556 36.7235 7.516 36.7715 7.476C36.9315 7.34 37.1235 7.156 37.3475 6.924C37.5715 6.684 37.8035 6.412 38.0435 6.108C38.2275 5.876 38.3875 5.672 38.5235 5.496C38.6595 5.312 38.7675 5.18 38.8475 5.1C38.9355 5.012 39.0155 4.944 39.0875 4.896C39.1595 4.848 39.2355 4.824 39.3155 4.824C39.4035 4.824 39.5035 4.848 39.6155 4.896C39.7355 4.936 39.8475 5.012 39.9515 5.124C39.8635 5.228 39.7475 5.376 39.6035 5.568C39.4595 5.76 39.3235 5.944 39.1955 6.12C39.3795 5.904 39.6235 5.712 39.9275 5.544C40.2315 5.376 40.5155 5.292 40.7795 5.292C41.0195 5.292 41.2115 5.368 41.3555 5.52C41.4995 5.672 41.5715 5.872 41.5715 6.12C41.5715 6.392 41.4955 6.692 41.3435 7.02C41.1915 7.34 40.9875 7.652 40.7315 7.956C40.4195 8.324 40.0715 8.624 39.6875 8.856C39.3115 9.088 38.9675 9.204 38.6555 9.204C38.4315 9.204 38.2555 9.14 38.1275 9.012C37.9995 8.884 37.9355 8.696 37.9355 8.448C37.9355 8.192 37.9915 7.916 38.1035 7.62C37.8875 7.892 37.6555 8.204 37.4075 8.556C37.1675 8.908 36.9315 9.268 36.6995 9.636C36.4675 10.004 36.2595 10.356 36.0755 10.692C35.8835 11.028 35.7315 11.324 35.6195 11.58C35.5075 11.836 35.4515 12.028 35.4515 12.156C35.4515 12.22 35.4595 12.26 35.4755 12.276C35.4995 12.308 35.5035 12.328 35.4875 12.336C35.4635 12.352 35.4435 12.352 35.4275 12.336ZM38.5955 9.072C38.8275 9.072 39.0555 9 39.2795 8.856C39.5115 8.704 39.7195 8.508 39.9035 8.268C40.0875 8.028 40.2355 7.772 40.3475 7.5C40.4595 7.228 40.5155 6.972 40.5155 6.732C40.5155 6.516 40.4635 6.348 40.3595 6.228C40.2635 6.108 40.1275 6.048 39.9515 6.048C39.7435 6.048 39.5075 6.14 39.2435 6.324C38.9795 6.5 38.7395 6.756 38.5235 7.092C38.3635 7.324 38.2475 7.56 38.1755 7.8C38.1115 8.032 38.0795 8.24 38.0795 8.424C38.0795 8.656 38.1275 8.824 38.2235 8.928C38.3195 9.024 38.4435 9.072 38.5955 9.072ZM42.3559 9.132C42.0359 9.132 41.7559 9.072 41.5159 8.952C41.2679 8.824 41.0879 8.592 40.9759 8.256C40.9679 8.224 40.9799 8.204 41.0119 8.196C41.0359 8.188 41.0519 8.204 41.0599 8.244C41.1399 8.42 41.2439 8.544 41.3719 8.616C41.4999 8.688 41.6399 8.724 41.7919 8.724C42.0479 8.724 42.2719 8.648 42.4639 8.496C42.6639 8.344 42.8399 8.152 42.9919 7.92C43.1519 7.688 43.2919 7.452 43.4119 7.212C43.5399 6.964 43.6599 6.752 43.7719 6.576C43.9479 6.28 44.1559 6.012 44.3959 5.772C44.6439 5.532 44.8679 5.384 45.0679 5.328C45.0199 5.304 44.9599 5.292 44.8879 5.292C44.6879 5.292 44.4679 5.352 44.2279 5.472C43.9879 5.592 43.7439 5.748 43.4959 5.94C43.2559 6.132 43.0199 6.336 42.7879 6.552C42.5639 6.76 42.3559 6.956 42.1639 7.14C41.9799 7.316 41.8319 7.456 41.7199 7.56C41.6559 7.616 41.6079 7.644 41.5759 7.644C41.5439 7.644 41.5279 7.628 41.5279 7.596C41.5279 7.548 41.5479 7.504 41.5879 7.464C41.8279 7.256 42.0759 7.024 42.3319 6.768C42.5879 6.504 42.8479 6.252 43.1119 6.012C43.3759 5.764 43.6439 5.56 43.9159 5.4C44.1879 5.24 44.4639 5.16 44.7439 5.16C44.7759 5.16 44.8039 5.16 44.8279 5.16C44.8599 5.16 44.8919 5.164 44.9239 5.172C45.0119 5.18 45.0919 5.204 45.1639 5.244C45.2439 5.284 45.2679 5.312 45.2359 5.328C45.0519 5.408 44.9079 5.568 44.8039 5.808C44.6999 6.048 44.6039 6.328 44.5159 6.648C44.4279 6.968 44.3199 7.292 44.1919 7.62C44.0719 7.948 43.8959 8.24 43.6639 8.496C43.7759 8.456 43.9519 8.364 44.1919 8.22C44.4319 8.076 44.6959 7.9 44.9839 7.692C45.2719 7.476 45.5399 7.24 45.7879 6.984C45.8199 6.952 45.8519 6.936 45.8839 6.936C45.9239 6.936 45.9439 6.956 45.9439 6.996C45.9439 7.028 45.9279 7.06 45.8959 7.092C45.6799 7.3 45.4399 7.524 45.1759 7.764C44.9119 7.996 44.6239 8.216 44.3119 8.424C44.0079 8.632 43.6919 8.804 43.3639 8.94C43.0359 9.068 42.6999 9.132 42.3559 9.132Z" fill="#17181C"/>
</svg>
