<svg width="48" height="48" viewBox="0 0 48 48" fill="none" xmlns="http://www.w3.org/2000/svg">
<path d="M24 45.5C12.14 45.5 2.5 35.86 2.5 24C2.5 12.14 12.14 2.5 24 2.5C35.86 2.5 45.5 12.14 45.5 24C45.5 35.86 35.86 45.5 24 45.5ZM24 5.5C13.8 5.5 5.5 13.8 5.5 24C5.5 34.2 13.8 42.5 24 42.5C34.2 42.5 42.5 34.2 42.5 24C42.5 13.8 34.2 5.5 24 5.5Z" fill="#858688"/>
<path d="M32 25.5H16C15.18 25.5 14.5 24.82 14.5 24C14.5 23.18 15.18 22.5 16 22.5H32C32.82 22.5 33.5 23.18 33.5 24C33.5 24.82 32.82 25.5 32 25.5Z" fill="#858688"/>
<path d="M24 33.5C23.18 33.5 22.5 32.82 22.5 32V16C22.5 15.18 23.18 14.5 24 14.5C24.82 14.5 25.5 15.18 25.5 16V32C25.5 32.82 24.82 33.5 24 33.5Z" fill="#858688"/>
</svg>
