<svg width="18" height="16" viewBox="0 0 18 16" fill="none" xmlns="http://www.w3.org/2000/svg">
<path d="M1.5 15.5C1.08333 15.5 0.729333 15.354 0.438 15.062C0.146 14.7707 0 14.4167 0 14C0 13.5833 0.146 13.2293 0.438 12.938C0.729333 12.646 1.08333 12.5 1.5 12.5C1.91667 12.5 2.27067 12.646 2.562 12.938C2.854 13.2293 3 13.5833 3 14C3 14.4167 2.854 14.7707 2.562 15.062C2.27067 15.354 1.91667 15.5 1.5 15.5ZM6 15C5.44772 15 5 14.5523 5 14V14C5 13.4477 5.44772 13 6 13H17C17.5523 13 18 13.4477 18 14V14C18 14.5523 17.5523 15 17 15H6ZM1.5 9.5C1.08333 9.5 0.729333 9.354 0.438 9.062C0.146 8.77067 0 8.41667 0 8C0 7.58333 0.146 7.22933 0.438 6.938C0.729333 6.646 1.08333 6.5 1.5 6.5C1.91667 6.5 2.27067 6.646 2.562 6.938C2.854 7.22933 3 7.58333 3 8C3 8.41667 2.854 8.77067 2.562 9.062C2.27067 9.354 1.91667 9.5 1.5 9.5ZM6 9C5.44772 9 5 8.55228 5 8V8C5 7.44772 5.44772 7 6 7H17C17.5523 7 18 7.44772 18 8V8C18 8.55228 17.5523 9 17 9H6ZM1.5 3.5C1.08333 3.5 0.729333 3.354 0.438 3.062C0.146 2.77067 0 2.41667 0 2C0 1.58333 0.146 1.22933 0.438 0.938C0.729333 0.646 1.08333 0.5 1.5 0.5C1.91667 0.5 2.27067 0.646 2.562 0.938C2.854 1.22933 3 1.58333 3 2C3 2.41667 2.854 2.77067 2.562 3.062C2.27067 3.354 1.91667 3.5 1.5 3.5ZM6 3C5.44772 3 5 2.55228 5 2V2C5 1.44772 5.44772 1 6 1H17C17.5523 1 18 1.44772 18 2V2C18 2.55228 17.5523 3 17 3H6Z" fill="#17181C"/>
</svg>
