<svg width="18" height="16" viewBox="0 0 18 16" fill="none" xmlns="http://www.w3.org/2000/svg">
<path d="M0.5 16C0.223858 16 0 15.7761 0 15.5V15.5C0 15.2239 0.223858 15 0.5 15H1.75C1.88807 15 2 14.8881 2 14.75V14.75C2 14.6119 1.88807 14.5 1.75 14.5H1.5C1.22386 14.5 1 14.2761 1 14V14C1 13.7239 1.22386 13.5 1.5 13.5H1.75C1.88807 13.5 2 13.3881 2 13.25V13.25C2 13.1119 1.88807 13 1.75 13H0.5C0.223858 13 0 12.7761 0 12.5V12.5C0 12.2239 0.223858 12 0.5 12H2C2.55228 12 3 12.4477 3 13V15C3 15.5523 2.55228 16 2 16H0.5ZM6 15C5.44772 15 5 14.5523 5 14V14C5 13.4477 5.44772 13 6 13H17C17.5523 13 18 13.4477 18 14V14C18 14.5523 17.5523 15 17 15H6ZM0.65697 10C0.294136 10 0 9.70586 0 9.34303V9.34303C0 9.1862 0.0561001 9.03455 0.158161 8.91548L0.997619 7.93611C1.31291 7.56827 1.05155 7 0.567069 7H0.5C0.223858 7 0 6.77614 0 6.5V6.5C0 6.22386 0.223858 6 0.5 6H2.34303C2.70586 6 3 6.29414 3 6.65697V6.65697C3 6.8138 2.9439 6.96545 2.84184 7.08452L2.00238 8.06389C1.68709 8.43173 1.94845 9 2.43293 9H2.5C2.77614 9 3 9.22386 3 9.5V9.5C3 9.77614 2.77614 10 2.5 10H0.65697ZM6 9C5.44772 9 5 8.55228 5 8V8C5 7.44772 5.44772 7 6 7H17C17.5523 7 18 7.44772 18 8V8C18 8.55228 17.5523 9 17 9H6ZM1.5 4C1.22386 4 1 3.77614 1 3.5V1.5C1 1.22386 0.776142 1 0.5 1V1C0.223858 1 0 0.776142 0 0.5V0.5C0 0.223858 0.223858 0 0.5 0H1C1.55228 0 2 0.447715 2 1V3.5C2 3.77614 1.77614 4 1.5 4V4ZM6 3C5.44772 3 5 2.55228 5 2V2C5 1.44772 5.44772 1 6 1H17C17.5523 1 18 1.44772 18 2V2C18 2.55228 17.5523 3 17 3H6Z" fill="#17181C"/>
</svg>
