<svg width="25" height="24" viewBox="0 0 25 24" fill="none" xmlns="http://www.w3.org/2000/svg">
<path d="M7.94123 0.0839251C6.66443 0.144165 5.79251 0.347925 5.03027 0.647445C4.24139 0.954885 3.57275 1.36745 2.90747 2.03513C2.24219 2.70281 1.83251 3.37193 1.52723 4.16201C1.23179 4.92593 1.03163 5.79857 0.975232 7.07609C0.918832 8.35361 0.906352 8.76425 0.912592 12.023C0.918832 15.2817 0.933232 15.6902 0.995152 16.9703C1.05611 18.2469 1.25915 19.1186 1.55867 19.881C1.86659 20.6699 2.27867 21.3383 2.94659 22.0038C3.61451 22.6694 4.28315 23.0781 5.07515 23.3838C5.83835 23.6788 6.71123 23.8799 7.98851 23.9358C9.26579 23.9918 9.67691 24.0047 12.9347 23.9985C16.1924 23.9922 16.6026 23.9778 17.8825 23.9171C19.1624 23.8564 20.0296 23.6519 20.7923 23.3538C21.5812 23.0452 22.25 22.6338 22.9151 21.9657C23.5801 21.2975 23.9896 20.6279 24.2946 19.8374C24.5903 19.0742 24.7912 18.2013 24.8466 16.925C24.9025 15.6441 24.9157 15.2351 24.9095 11.9769C24.9032 8.71865 24.8886 8.31017 24.8279 7.03049C24.7672 5.75081 24.5639 4.88177 24.2646 4.11881C23.9562 3.32993 23.5446 2.66201 22.8769 1.99601C22.2092 1.33001 21.5392 0.920805 20.7488 0.616485C19.9852 0.321045 19.1128 0.119685 17.8355 0.0644851C16.5582 0.00928514 16.1471 -0.00487487 12.8881 0.00136513C9.62915 0.00760513 9.22115 0.0215251 7.94123 0.0839251ZM8.08139 21.777C6.91139 21.7262 6.27611 21.5318 5.85275 21.369C5.29211 21.153 4.89275 20.8919 4.47083 20.4741C4.04891 20.0562 3.78971 19.6554 3.57083 19.096C3.40643 18.6726 3.20843 18.0381 3.15371 16.8681C3.09419 15.6035 3.08171 15.2238 3.07475 12.0201C3.06779 8.81633 3.08003 8.43713 3.13547 7.17209C3.18539 6.00305 3.38099 5.36705 3.54347 4.94393C3.75947 4.38257 4.01963 3.98393 4.43843 3.56225C4.85723 3.14057 5.25683 2.88089 5.81675 2.66201C6.23963 2.49689 6.87419 2.30057 8.04371 2.24489C9.30923 2.18489 9.68843 2.17289 12.8917 2.16593C16.095 2.15897 16.4752 2.17097 17.7412 2.22665C18.9102 2.27753 19.5464 2.47121 19.9691 2.63465C20.53 2.85065 20.9291 3.11009 21.3508 3.52961C21.7724 3.94913 22.0323 4.34729 22.2512 4.90841C22.4166 5.33009 22.6129 5.96441 22.6681 7.13465C22.7283 8.40017 22.742 8.77961 22.7478 11.9826C22.7535 15.1857 22.7423 15.5661 22.6868 16.8306C22.6357 18.0006 22.4418 18.6362 22.2788 19.06C22.0628 19.6204 21.8024 20.02 21.3834 20.4414C20.9644 20.8629 20.5652 21.1226 20.0051 21.3414C19.5827 21.5063 18.9474 21.7031 17.7788 21.7588C16.5133 21.8183 16.1341 21.8308 12.9296 21.8378C9.72515 21.8447 9.34715 21.8318 8.08163 21.777M17.864 5.58641C17.8645 5.87123 17.9494 6.14952 18.1081 6.38607C18.2667 6.62262 18.492 6.80681 18.7553 6.91535C19.0186 7.02389 19.3082 7.05189 19.5875 6.99583C19.8667 6.93976 20.1231 6.80214 20.3241 6.60037C20.5252 6.3986 20.6618 6.14174 20.7169 5.86228C20.7719 5.58283 20.7429 5.29333 20.6334 5.03039C20.5239 4.76746 20.3388 4.5429 20.1017 4.38512C19.8646 4.22735 19.586 4.14344 19.3012 4.14401C18.9193 4.14477 18.5534 4.29715 18.2839 4.56764C18.0144 4.83813 17.8634 5.20458 17.864 5.58641M6.74963 12.0119C6.75635 15.4151 9.52019 18.1677 12.9227 18.1612C16.3252 18.1547 19.0796 15.3911 19.0732 11.9879C19.0667 8.58473 16.3021 5.83145 12.8992 5.83817C9.49619 5.84489 6.74315 8.60921 6.74963 12.0119ZM8.91107 12.0076C8.90951 11.2165 9.14258 10.4426 9.58081 9.78395C10.019 9.12527 10.6428 8.61134 11.3731 8.30714C12.1034 8.00294 12.9075 7.92213 13.6838 8.07494C14.46 8.22774 15.1735 8.6073 15.734 9.16561C16.2945 9.72393 16.6769 10.4359 16.8328 11.2115C16.9887 11.9872 16.9111 12.7916 16.6098 13.5231C16.3085 14.2547 15.797 14.8804 15.1401 15.3212C14.4831 15.7621 13.7102 15.9982 12.9191 15.9998C12.3938 16.0009 11.8734 15.8985 11.3876 15.6984C10.9019 15.4984 10.4603 15.2046 10.0881 14.8339C9.71594 14.4632 9.42042 14.0228 9.21846 13.5378C9.0165 13.0529 8.91205 12.5329 8.91107 12.0076" fill="#FFFFFF"/>
</svg>
