<svg width="24" height="20" viewBox="0 0 24 20" fill="none" xmlns="http://www.w3.org/2000/svg">
<path d="M21.4721 5.13121C21.4866 5.34162 21.4866 5.55202 21.4866 5.76437C21.4866 12.2346 16.5705 19.6968 7.58113 19.6968V19.6929C4.92565 19.6968 2.32533 18.9347 0.0898438 17.4977C0.475973 17.5443 0.864037 17.5675 1.25307 17.5685C3.45371 17.5704 5.59146 16.8306 7.32275 15.4683C5.23146 15.4286 3.39759 14.0624 2.75694 12.0679C3.48952 12.2094 4.24436 12.1803 4.96339 11.9835C2.68339 11.522 1.04307 9.51485 1.04307 7.18389C1.04307 7.16256 1.04307 7.1422 1.04307 7.12184C1.72242 7.50096 2.48307 7.71136 3.26113 7.73463C1.11371 6.29669 0.451779 3.43438 1.74855 1.1965C4.22984 4.25564 7.89081 6.11537 11.8208 6.3122C11.4269 4.61149 11.965 2.82933 13.2347 1.63379C15.2031 -0.220117 18.2989 -0.125094 20.1492 1.84614C21.2437 1.62992 22.2927 1.22752 23.2527 0.657388C22.8879 1.79087 22.1244 2.7537 21.1044 3.36553C22.0731 3.25112 23.0195 2.99126 23.9108 2.59469C23.2547 3.57982 22.4282 4.43793 21.4721 5.13121Z" fill="white"/>
</svg>
